<?xml version="1.0" encoding="utf-8"?>
<!-- Generator: Adobe Illustrator 24.0.1, SVG Export Plug-In . SVG Version: 6.00 Build 0)  -->
<svg version="1.1" id="图层_1" xmlns="http://www.w3.org/2000/svg" xmlns:xlink="http://www.w3.org/1999/xlink" x="0px" y="0px"
	 viewBox="0 0 150.5 60.8" style="enable-background:new 0 0 150.5 60.8;" xml:space="preserve">
<style type="text/css">
	.st0{fill:none;}
	.st1{fill:#515E8B;}
	.st2{fill:#515E8A;}
	.st3{fill:#54608C;}
	.st4{fill:#54618D;}
	.st5{fill:#54618C;}
	.st6{fill:#F8F9FA;}
</style>
<rect x="-10.7" y="13.7" class="st0" width="139.3" height="40.9"/>
<g>
	<path class="st1" d="M63.5,25.4c0.1-0.1,0.2-0.1,0.2-0.1c1.8,0,3.5,0,5.3,0c0.3,0,0.3,0.1,0.2,0.3c-0.2,0.5-0.3,1-0.5,1.4
		c-0.1,0.2,0,0.2,0.2,0.2c0.8,0,1.6,0,2.4,0c0.2,0,0.2,0,0.2-0.2c0.1-0.5,0.1-1,0.2-1.5c0-0.2,0-0.3-0.1-0.4
		c-0.2-0.2-0.4-0.5-0.6-0.7c0.1-0.1,0.2-0.1,0.3-0.1c1.7,0,3.5,0,5.2,0c0.3,0,0.3,0.1,0.3,0.3c-0.1,0.8-0.2,1.5-0.3,2.3
		c0,0.2,0,0.3,0.3,0.3c2.1,0,4.1,0,6.2,0c0.4,0,0.4,0,0.3,0.3c-0.1,0.8-0.2,1.5-0.3,2.3c0,0.2-0.1,0.3-0.3,0.3c-2.1,0-4.1,0-6.2,0
		c-0.3,0-0.4,0.1-0.4,0.4c-0.1,0.8-0.2,1.5-0.3,2.3c0,0.2,0,0.3,0.2,0.3c1.9,0,3.7,0,5.6,0c0.5,0,0.5,0,0.4,0.4
		c-0.1,0.7-0.2,1.5-0.3,2.2c0,0.2-0.1,0.3-0.3,0.3c-1.9,0-3.8,0-5.7,0c-0.3,0-0.3,0.1-0.4,0.3c-0.1,0.9-0.3,1.8-0.4,2.7
		c0,0.2,0,0.3,0.3,0.3c2.4,0,4.8,0,7.2,0c0.2,0,0.3,0,0.3,0.3c-0.1,0.8-0.2,1.6-0.3,2.4c0,0.2-0.1,0.3-0.3,0.3c-7,0-13.9,0-20.9,0
		c-0.2,0-0.3,0-0.3-0.3c0.1-0.8,0.2-1.7,0.3-2.5c0-0.1,0.1-0.2,0.2-0.2c0.1,0,0.2,0,0.2,0c2.7,0,5.4,0,8,0c0.2,0,0.3-0.1,0.4-0.3
		c0.1-1,0.3-1.9,0.4-2.9c0-0.3-0.1-0.3-0.3-0.3c-2.2,0-4.4,0-6.6,0c-0.4,0-0.4,0-0.3-0.4c0.1-0.7,0.2-1.5,0.3-2.2
		c0-0.3,0.1-0.4,0.4-0.4c2.2,0,4.4,0,6.6,0c0.2,0,0.3,0,0.4-0.3c0.1-0.8,0.2-1.5,0.3-2.3c0-0.2,0-0.3-0.3-0.3c-1,0-1.9,0-2.9,0
		c-0.2,0-0.3,0.1-0.4,0.2c-0.2,0.5-0.4,1-0.5,1.5c-0.1,0.2-0.2,0.2-0.4,0.2c-1.4,0-2.9,0-4.3,0c-0.3,0-0.3,0-0.2-0.3
		c0.6-1.8,1.3-3.6,1.9-5.4c0.1-0.2,0.1-0.4-0.1-0.6C63.8,25.8,63.7,25.6,63.5,25.4z"/>
	<path class="st2" d="M140.1,41.9c0.3-0.3,0.6-0.6,0.9-0.9c0.4-0.4,0.8-0.8,1.2-1.2c0.1-0.1,0.2-0.3,0.2-0.5
		c0.2-1.3,0.4-2.6,0.5-3.9c0-0.2,0-0.2-0.2-0.2c-1.6,0-3.3,0-4.9,0c-0.2,0-0.2,0.1-0.3,0.2c-0.3,2.4-0.7,4.8-1,7.3
		c0,0.2-0.1,0.3-0.3,0.3c-1.5,0-2.9,0-4.4,0c-0.2,0-0.3-0.1-0.2-0.3c0.3-2.4,0.7-4.8,1-7.2c0-0.2,0-0.3-0.3-0.3c-1.7,0-3.5,0-5.2,0
		c-0.2,0-0.3-0.1-0.3-0.3c0.1-0.6,0.2-1.3,0.3-1.9c0-0.2,0.1-0.3,0.3-0.3c1.8,0,3.5,0,5.3,0c0.3,0,0.4-0.1,0.4-0.3
		c0.1-1.1,0.3-2.3,0.5-3.4c0-0.3,0-0.3-0.3-0.3c-1.4,0-2.8,0-4.2,0c-0.3,0-0.3-0.1-0.3-0.3c0.1-0.6,0.2-1.2,0.2-1.8
		c0-0.2,0.1-0.3,0.3-0.3c1.4,0,2.8,0,4.2,0c0.1,0,0.4,0.1,0.4-0.1c0-0.2,0.2-0.5,0-0.8c-0.2-0.3-0.4-0.5-0.7-0.8
		c0.1-0.1,0.2-0.1,0.3-0.1c1.7,0,3.5,0,5.2,0c0.3,0,0.3,0.1,0.3,0.3c-0.1,0.4-0.1,0.8-0.2,1.1c0,0.2,0,0.3,0.2,0.3
		c1.4,0,2.8,0,4.1,0c0.2,0,0.2,0,0.2-0.2c-0.1-0.4-0.2-0.8-0.3-1.2c-0.1-0.2,0-0.3,0.2-0.3c1.6,0,3.1,0,4.7,0c0.2,0,0.3,0.1,0.3,0.2
		c0.3,1.1,0.6,2.3,0.9,3.4c0.1,0.2,0,0.3-0.2,0.3c-0.6,0-1.3,0-1.9,0c-0.2,0-0.2,0-0.3,0.2c-0.2,1.3-0.3,2.6-0.5,3.9
		c0,0.2,0,0.3,0.3,0.3c0.4,0,0.9,0,1.3,0c0.3,0,0.3,0.1,0.3,0.3c-0.2,1.4-0.4,2.9-0.6,4.3c-0.1,1-0.3,2-0.4,3c-0.1,1-1,1.7-2,1.7
		c-1.6,0-3.1,0-4.7,0C140.3,41.9,140.2,42,140.1,41.9z M139.6,32.6c0.5,0,1,0,1.5,0c0.1,0,0.2,0,0.2-0.2c0.2-1.2,0.3-2.5,0.5-3.7
		c0-0.2-0.1-0.2-0.2-0.2c-1,0-2,0-2.9,0c-0.2,0-0.2,0.1-0.3,0.2c-0.2,1.2-0.3,2.4-0.5,3.6c-0.1,0.3,0.1,0.3,0.3,0.3
		C138.7,32.6,139.2,32.6,139.6,32.6z"/>
	<path class="st2" d="M120.1,29.3c-0.2-0.1-0.3-0.1-0.4-0.1c-4.1,0-8.2,0-12.4,0c-0.4,0-0.4,0-0.3-0.4c0.1-0.8,0.2-1.5,0.3-2.3
		c0-0.2,0.1-0.3,0.3-0.3c2.2,0,4.4,0,6.7,0c0.1,0,0.3,0.1,0.3-0.1c0-0.2,0.1-0.4-0.1-0.6c-0.2-0.2-0.4-0.5-0.6-0.7
		c0.1-0.1,0.1-0.1,0.2-0.1c1.9,0,3.8,0,5.7,0c0.2,0,0.3,0.1,0.2,0.3c-0.1,0.3-0.1,0.6-0.1,0.9c0,0.2,0,0.3,0.3,0.3
		c2.2,0,4.4,0,6.6,0c0.4,0,0.4,0,0.3,0.4c-0.1,0.8-0.2,1.5-0.3,2.3c0,0.2-0.1,0.3-0.2,0.4c-3.4,2.9-6.8,5.8-10.3,8.6
		c-0.4,0.3-0.8,0.6-1.1,0.9c0,0-0.1,0.1-0.1,0.2c0,0.1,0.1,0.1,0.2,0.1c0.5,0.2,1.1,0.3,1.6,0.3c3,0,6,0,9.1,0c0.4,0,0.4,0,0.3,0.4
		c-0.1,0.8-0.2,1.6-0.3,2.3c0,0.2-0.1,0.2-0.3,0.2c-3.5,0-7.1,0-10.6,0c-0.1,0-0.3,0-0.4-0.1c-0.8-0.2-1.6-0.4-2.3-0.6
		c-0.2,0-0.3-0.1-0.4,0.1c-0.4,0.5-1,0.6-1.7,0.6c-1.8,0-3.5,0-5.3,0c-0.1,0-0.2,0-0.3,0c0,0,0,0,0-0.1
		C109.9,38,115,33.7,120.1,29.3z"/>
	<path class="st2" d="M87.9,24.9c0.1-0.1,0.2,0,0.3,0c5,0,9.9,0,14.9,0c0.2,0,0.4,0.1,0.4,0.3c0.7,2.1,1.5,4.1,2.2,6.2
		c0.1,0.3,0.1,0.3-0.2,0.3c-1.7,0-3.3,0-5,0c-0.2,0-0.3-0.1-0.4-0.3c-0.3-0.7-0.3-0.7-1-0.7c-2.7,0-5.4,0-8.1,0
		c-0.2,0-0.4,0-0.5,0.3c-0.2,0.6-0.7,0.8-1.3,0.7c-1.5-0.1-2.9,0-4.4,0c-0.1,0-0.2,0-0.3,0c0-0.1,0.1-0.2,0.1-0.3
		c1.2-1.9,2.4-3.7,3.6-5.6c0.2-0.2,0.2-0.4-0.1-0.6C88.1,25.1,88,25,87.9,24.9z M95.7,28.3c0.9,0,1.8,0,2.6,0c0.2,0,0.6,0.1,0.7-0.1
		c0.1-0.2-0.1-0.4-0.2-0.7c0-0.2-0.2-0.3-0.4-0.3c-1.6,0-3.1,0-4.7,0c-0.7,0-1.1,0.1-1.3,0.8c0,0.1-0.1,0.1-0.1,0.2
		c0,0.1,0.1,0,0.2,0C93.6,28.3,94.6,28.3,95.7,28.3z"/>
	<path class="st2" d="M48.6,33.2c-0.9,0.2-1.8,0.4-2.7,0.5c-2.3,0.4-4.7,0.9-6.9,1.7c-3.6,1.3-6.8,3.1-9.5,5.8
		c-0.6,0.7-1.2,1.3-1.8,2.1c0,0.1-0.1,0.2-0.2,0.1c-0.1,0-0.1-0.1-0.1-0.2c-0.3-1.1-0.6-2.2-0.8-3.3c0-0.1,0-0.2,0.1-0.4
		c2.6-2.8,5.5-5.1,8.8-7c2.1-1.2,4.4-2.1,6.7-2.7c0.2-0.1,0.4,0,0.7,0.1c1.8,1,3.6,2,5.4,3C48.3,33,48.5,33.1,48.6,33.2
		C48.6,33.2,48.6,33.2,48.6,33.2z"/>
	<path class="st2" d="M4.3,33.2c0.6-0.3,1.1-0.6,1.5-0.8c1.4-0.8,2.9-1.6,4.3-2.4c0.2-0.1,0.3-0.1,0.5-0.1c4.1,1.1,7.8,3,11.1,5.6
		c1.6,1.2,3,2.6,4.4,4c0.1,0.1,0.2,0.3,0.1,0.5c-0.3,1.1-0.5,2.1-0.8,3.2c0,0.1-0.1,0.2-0.1,0.3c-0.3-0.3-0.5-0.6-0.8-0.9
		c-2.5-2.9-5.5-5.1-9.1-6.5c-2.4-1-5-1.7-7.6-2.1c-1.2-0.2-2.4-0.5-3.6-0.7C4.5,33.2,4.4,33.2,4.3,33.2z"/>
	<path class="st2" d="M99.2,40.4c0.4-0.4,0.7-0.8,1.1-1.2c0.4-0.4,0.6-0.8,0.7-1.4c0.1-0.8,0.2-1.6,0.3-2.3c0.1-0.4,0.1-0.4-0.3-0.4
		c-0.6,0-1.2,0-1.8,0c-0.2,0-0.3,0.1-0.3,0.3c-0.3,2.3-0.6,4.6-0.9,6.9c-0.1,0.6-0.1,0.6-0.7,0.6c-0.9,0-1.8,0-2.7,0
		c-0.2,0-0.3,0-0.2-0.3c0.4-2.4,0.7-4.8,1-7.3c0.1-0.8,0.2-1.6,0.3-2.3c0-0.2,0.1-0.3,0.4-0.3c3.1,0,6.1,0,9.2,0
		c0.2,0,0.3,0,0.3,0.3c-0.3,2-0.6,3.9-0.9,5.9c-0.1,1-1,1.7-2,1.7C101.4,40.5,100.3,40.5,99.2,40.4C99.2,40.5,99.2,40.4,99.2,40.4z"
		/>
	<path class="st2" d="M88.4,41.7c-1.4,0-2.7,0-4.1,0c-0.2,0-0.3-0.1-0.3-0.3c0.4-2.8,0.8-5.7,1.2-8.5c0-0.2,0.1-0.3,0.3-0.3
		c2.7,0,5.5,0,8.2,0c0.3,0,0.3,0.1,0.2,0.3c-0.3,2.1-0.6,4.2-0.9,6.4c-0.1,0.7-0.2,1.4-0.3,2.1c0,0.2-0.1,0.3-0.3,0.3
		C91.2,41.7,89.8,41.7,88.4,41.7z M88.7,39.5c0.3,0,0.5,0,0.8,0c0.1,0,0.2,0,0.2-0.2c0.2-1.4,0.4-2.8,0.6-4.2c0-0.1,0-0.2-0.2-0.2
		c-0.5,0-1,0-1.5,0c-0.2,0-0.2,0.1-0.2,0.2c0,0.2-0.1,0.4-0.1,0.6c-0.2,1.2-0.3,2.4-0.5,3.6c0,0.2,0,0.2,0.2,0.2
		C88.2,39.5,88.5,39.5,88.7,39.5z"/>
	<path class="st3" d="M30.5,41.7c0.6-0.6,1.3-1.1,2-1.5c2.3-1.6,4.6-2.9,7.2-3.9c2.4-0.9,4.9-1.5,7.5-1.5c0.5,0,0.8,0.1,1.2,0.4
		c0.6,0.4,1.1,0.8,1.7,1.1c0.1,0.1,0.2,0.1,0.2,0.2c-0.1,0.1-0.2,0-0.3,0c-5.1,0-10,1-14.8,2.9c-1.4,0.6-2.8,1.3-4.2,2
		c-0.2,0.1-0.4,0.2-0.5,0.3l0,0C30.6,41.8,30.6,41.8,30.5,41.7C30.6,41.8,30.5,41.8,30.5,41.7z"/>
	<path class="st3" d="M22.4,41.9c-0.5-0.3-1.1-0.6-1.6-0.9c-3.2-1.7-6.5-2.9-10.1-3.7c-2-0.4-4-0.7-6-0.8c-0.7,0-1.5,0-2.2,0
		c0-0.2,0.1-0.2,0.1-0.2c0.7-0.5,1.4-1,2.2-1.4c0.1-0.1,0.2-0.1,0.4-0.1c2.6,0,5.1,0.5,7.5,1.4c3.4,1.2,6.5,3.1,9.4,5.3
		C22.2,41.6,22.4,41.7,22.4,41.9C22.5,41.8,22.4,41.8,22.4,41.9z"/>
	<path class="st4" d="M24.3,43.7C17,41.4,9.5,40.4,1.8,40.5c0-0.1,0.1-0.1,0.1-0.2c0.6-0.5,1.2-1,1.8-1.5c0.1-0.1,0.2-0.1,0.4-0.1
		c2.2,0.2,4.5,0.6,6.7,1c3.8,0.7,7.5,1.7,11.1,3C22.7,43,23.5,43.3,24.3,43.7z"/>
	<path class="st5" d="M29.2,43.5c0.8-0.4,1.7-0.8,2.6-1.1c3-1.1,6.2-1.9,9.3-2.5c2.5-0.5,5.1-0.9,7.7-1.1c0.1,0,0.2,0,0.3,0
		c0.7,0.6,1.4,1.1,2.1,1.7c-0.1,0.1-0.2,0.1-0.3,0.1c-1.1,0-2.2,0-3.3,0c-2.9,0.1-5.8,0.4-8.6,0.8c-2.9,0.4-5.7,1.1-8.6,1.9
		c-0.3,0.1-0.6,0.2-0.9,0.3c0,0-0.1,0-0.1,0C29.3,43.5,29.2,43.5,29.2,43.5C29.2,43.5,29.2,43.5,29.2,43.5z"/>
	<path class="st3" d="M40.6,19.4c0.3,0,0.5,0.1,0.6,0.4c0.1,0.2,0.1,0.5-0.1,0.7c-1.6,1.5-3.2,3-4.7,4.4c-0.2,0.2-0.3,0.3-0.6,0.2
		c-0.3-0.1-0.4-0.3-0.5-0.5c0-0.2,0-0.3,0.2-0.4c1.6-1.5,3.3-3.1,4.9-4.6C40.3,19.4,40.4,19.3,40.6,19.4z"/>
	<path class="st3" d="M12,19.4c0.2-0.1,0.3,0.1,0.4,0.2c1.3,1.3,2.7,2.5,4,3.8c0.2,0.2,0.5,0.5,0.7,0.7c0.2,0.2,0.2,0.5,0,0.8
		c-0.2,0.3-0.6,0.3-0.8,0.1c-1.6-1.5-3.2-3.1-4.9-4.6c-0.2-0.2-0.1-0.4-0.1-0.6C11.5,19.5,11.7,19.3,12,19.4z"/>
	<path class="st5" d="M7.5,25.9c0.1,0,0.2,0.1,0.3,0.1c2,0.9,4,1.8,6,2.7c0.3,0.1,0.4,0.4,0.2,0.7c-0.1,0.3-0.4,0.5-0.7,0.4
		c-2.1-0.9-4.1-1.8-6.2-2.7C7,26.9,6.9,26.6,7,26.3C7,26.1,7.3,25.9,7.5,25.9z"/>
	<path class="st5" d="M38.4,29c0-0.2,0.1-0.3,0.3-0.4c1.9-0.8,3.8-1.7,5.7-2.5c0.1-0.1,0.3-0.1,0.4-0.2c0.3-0.1,0.6,0,0.7,0.3
		c0.1,0.3,0,0.7-0.3,0.8c-2,0.9-4.1,1.8-6.1,2.7C38.8,29.9,38.4,29.5,38.4,29z"/>
	<path class="st3" d="M18.3,14.7c0.2,0,0.4,0.1,0.5,0.3c0.9,2,1.8,4,2.7,6c0.1,0.3,0,0.6-0.3,0.7c-0.4,0.2-0.7,0.1-0.8-0.2
		c-0.9-2-1.8-3.9-2.7-5.9C17.6,15.2,17.9,14.7,18.3,14.7z"/>
	<path class="st3" d="M31.7,21.8c-0.6,0-0.8-0.4-0.6-0.9c0.9-2,1.8-3.9,2.7-5.9c0.1-0.3,0.4-0.4,0.7-0.3c0.3,0.1,0.5,0.5,0.4,0.8
		c-0.9,2-1.8,4-2.7,5.9C32.1,21.7,32,21.9,31.7,21.8z"/>
	<path class="st4" d="M26.9,16.9c0,1.1,0,2.2,0,3.3c0,0.4-0.2,0.5-0.6,0.5c-0.4,0-0.6-0.2-0.6-0.6c0-2.2,0-4.4,0-6.6
		c0-0.3,0.3-0.6,0.6-0.6c0.3,0,0.6,0.2,0.6,0.6C26.9,14.7,26.9,15.8,26.9,16.9z"/>
	<path class="st4" d="M11.2,24.6c0-0.3,0.1-0.5,0.3-0.7c0.2-0.2,0.4-0.2,0.7,0c1.1,0.8,2.1,1.5,3.2,2.3c0.3,0.2,0.3,0.3,0.1,0.6
		c-0.1,0.1-0.1,0.2-0.2,0.3c-0.2,0.2-0.4,0.2-0.6,0c-1.1-0.8-2.1-1.5-3.2-2.3C11.3,24.8,11.1,24.7,11.2,24.6z"/>
	<path class="st5" d="M37.1,26.6c0-0.2,0-0.3,0.1-0.3c1.1-0.8,2.3-1.6,3.4-2.4c0.1-0.1,0.2-0.1,0.4,0c0.3,0.1,0.5,0.5,0.5,0.8
		c0,0.1-0.1,0.2-0.1,0.2c-1.1,0.8-2.2,1.6-3.3,2.4c-0.1,0.1-0.2,0.1-0.4,0C37.3,27.1,37.1,26.8,37.1,26.6z"/>
	<path class="st5" d="M23.3,21c-0.4,0-0.4,0-0.5-0.4c-0.2-1.2-0.4-2.5-0.7-3.7c-0.1-0.4,0-0.6,0.5-0.7c0.4-0.1,0.6,0,0.7,0.5
		c0.2,1.2,0.5,2.5,0.7,3.7c0.1,0.4-0.1,0.6-0.5,0.7C23.3,21,23.3,21,23.3,21z"/>
	<path class="st5" d="M29.3,21c-0.1,0-0.3,0-0.4,0c-0.3-0.1-0.4-0.2-0.3-0.5c0.3-1.3,0.5-2.6,0.7-3.9c0-0.3,0.2-0.4,0.4-0.4
		c0.3-0.1,0.5,0.1,0.8,0.3c0.1,0.1,0.1,0.2,0,0.2c-0.2,1.4-0.5,2.7-0.7,4.1C29.8,21,29.5,21,29.3,21z"/>
	<path class="st5" d="M36.1,18.8c0.3,0,0.7,0.3,0.7,0.6c0,0.1,0,0.2-0.1,0.2c-0.8,1.1-1.6,2.2-2.4,3.3c-0.1,0.1-0.2,0.2-0.4,0.1
		c-0.3-0.1-0.5-0.2-0.7-0.4c-0.1-0.1-0.1-0.2,0-0.3c0.8-1.1,1.6-2.3,2.5-3.4C35.8,18.8,35.9,18.8,36.1,18.8z"/>
	<path class="st5" d="M18.5,23.2c-0.1,0-0.2-0.1-0.3-0.2c-0.8-1.1-1.6-2.2-2.4-3.3c-0.1-0.1-0.1-0.2,0-0.4c0.1-0.2,0.2-0.3,0.5-0.4
		c0.2-0.1,0.4-0.1,0.6,0.2c0.8,1.1,1.5,2.1,2.3,3.2c0.2,0.3,0.2,0.4-0.1,0.7C18.9,23,18.8,23.1,18.5,23.2z"/>
	<path class="st4" d="M29.2,43.5C29.2,43.5,29.2,43.5,29.2,43.5c-0.2,0.2-0.5,0.2-0.7,0.3C28.7,43.7,28.9,43.5,29.2,43.5z"/>
	<path class="st4" d="M22.4,41.9C22.4,41.8,22.5,41.8,22.4,41.9c0.3,0,0.5,0.2,0.7,0.4C22.9,42.1,22.6,42,22.4,41.9z"/>
	<path class="st4" d="M30.5,41.7C30.5,41.8,30.6,41.8,30.5,41.7c-0.1,0.2-0.2,0.3-0.3,0.4c0,0,0-0.1,0-0.1
		C30.3,41.9,30.4,41.8,30.5,41.7z"/>
	<path class="st6" d="M30.2,42c0,0,0,0.1,0,0.1c-0.1,0.1-0.3,0.2-0.4,0.2C29.8,42.2,30,42,30.2,42z"/>
	<path class="st4" d="M29.3,43.5c0-0.1,0.1-0.1,0.1,0C29.4,43.5,29.4,43.5,29.3,43.5z"/>
	<polygon class="st4" points="30.7,41.7 30.7,41.7 30.7,41.8 	"/>
</g>
</svg>
